<?xml version="1.0" encoding="utf-8"?>
<!-- Generator: Adobe Illustrator 19.0.0, SVG Export Plug-In . SVG Version: 6.00 Build 0)  -->
<svg version="1.1" id="Capa_1" xmlns="http://www.w3.org/2000/svg" xmlns:xlink="http://www.w3.org/1999/xlink" x="0px" y="0px"
	 viewBox="-219 20.7 520.3 520.3" style="enable-background:new -219 20.7 520.3 520.3;" xml:space="preserve">
<style type="text/css">
	.st0{fill:#94BA13;}
</style>
<g>
	<path class="st0" d="M39.1,188.5c24.6,0,44.7-20.1,44.7-44.7c0-24.6-20.1-44.7-44.7-44.7c-24.6,0-44.7,20.1-44.7,44.7
		C-5.5,168.4,14.5,188.5,39.1,188.5z"/>
	<path class="st0" d="M111.9,214.9c32-29.3,35.3-35.7,37-39.2c7.6-15.1,11.5-50.4,12.2-57.3c1-10.4-6.6-19.8-17-20.8
		c-0.6-0.1-1.3-0.1-1.9-0.1c-9.8,0-17.9,7.4-18.9,17.1c-1.6,16-5.1,37.1-8.1,43.5c-3.7,5.4-21.9,22.6-41.1,39.7H8.3
		c-19.2-17.1-37.3-34.3-41.1-39.7c-2.9-6.5-6.5-27.6-8.1-43.5c-1-9.8-9.1-17.1-18.9-17.1c-0.6,0-1.3,0-1.9,0.1
		c-10.4,1-18.1,10.4-17,20.8c0.7,6.9,4.5,42.1,12.2,57.3c1.7,3.5,5,9.9,37,39.2c8.9,8.1,17.4,15.7,22.9,20.5v209
		c0,10.9,8.9,19.8,19.8,19.8c10.9,0,19.8-8.9,19.8-19.8V334.8h12.5v109.6c0,10.9,8.9,19.8,19.8,19.8c10.9,0,19.8-8.9,19.8-19.8
		l-0.1-205.5C89.5,235,100.4,225.4,111.9,214.9z"/>
	<path class="st0" d="M-56.7,264.9c-2.1-4.9-6.9-8-12.1-8.1c0,0-47.8,0-47.9,0c-4,0-7.8,1.8-10.3,4.8l-2.5-5.9
		c-1.9-4.4-6.2-7.2-11-7.2c-0.1,0-43,0-43.3,0c-5.9,0-9.1,2.8-11,7.2l-23.1,53.5c-1.3,2.9-1.3,6.2-0.1,9.2c1.2,3,3.5,5.3,6.4,6.6
		c1.5,0.7,3.1,1,4.8,1c4.8,0,9.1-2.8,11-7.2l4.9-11.2V411c0,7.3,5.9,13.2,13.2,13.2c7.3,0,13.2-5.9,13.2-13.2v-67.8h5.6V411
		c0,7.3,5.9,13.2,13.2,13.2s13.2-5.9,13.2-13.2v-71.5c1-1.1,1.8-2.3,2.4-3.7l5.4-12.5c0,0,0,0,0.1,0.1v116.2
		c0,8.2,6.7,14.9,14.9,14.9c8.2,0,14.9-6.7,14.9-14.9v-77.1h6.3v77.1c0,8.2,6.7,14.9,14.9,14.9c8.2,0,14.9-6.7,14.9-14.9l0-112.4
		l3.7,8.6c2.1,4.9,7,8.1,12.4,8.1c1.8,0,3.6-0.4,5.4-1.1c3.3-1.4,5.9-4.1,7.2-7.4c1.3-3.4,1.3-7-0.2-10.3L-56.7,264.9z"/>
	<path class="st0" d="M-90.7,251.8c18.8,0,34-15.3,34-34c0-18.8-15.3-34-34-34c-18.7,0-34,15.3-34,34
		C-124.7,236.6-109.4,251.8-90.7,251.8z"/>
	<path class="st0" d="M-160.7,244c16.7,0,30.2-13.6,30.2-30.2c0-16.7-13.6-30.2-30.2-30.2c-16.7,0-30.2,13.6-30.2,30.2
		C-191,230.5-177.4,244-160.7,244z"/>
	<path class="st0" d="M139,217.8c0,18.8,15.3,34,34,34c18.7,0,34-15.3,34-34c0-18.8-15.3-34-34-34C154.3,183.8,139,199.1,139,217.8z
		"/>
	<path class="st0" d="M300.3,309.1l-23.1-53.5c-1.9-4.4-6.2-7.2-11-7.2c-0.2,0-43.2,0-43.3,0c-4.8,0-9.1,2.8-11,7.2l-2.5,5.9
		c-2.5-3-6.3-4.8-10.3-4.8c-0.1,0-47.9,0-47.9,0c-5.9,0-10,3.3-12.1,8.1L113,325c-1.4,3.3-1.5,7-0.2,10.3c1.3,3.4,3.9,6,7.2,7.4
		c1.7,0.7,3.5,1.1,5.4,1.1c5.4,0,10.2-3.2,12.4-8.1l3.7-8.6l0,112.4c0,8.2,6.7,14.9,14.9,14.9s14.9-6.7,14.9-14.9v-77.1h6.3v77.1
		c0,8.2,6.7,14.9,14.9,14.9c8.2,0,14.9-6.7,14.9-14.9V323.3c0,0,0,0,0.1-0.1l5.4,12.5c0.6,1.4,1.4,2.6,2.4,3.7V411
		c0,7.3,5.9,13.2,13.2,13.2s13.2-5.9,13.2-13.2v-67.8h5.6V411c0,7.3,5.9,13.2,13.2,13.2c7.3,0,13.2-5.9,13.2-13.2V307.4l4.9,11.2
		c1.9,4.4,6.2,7.2,11,7.2c1.6,0,3.2-0.3,4.8-1c2.9-1.3,5.2-3.6,6.4-6.6C301.7,315.3,301.6,312.1,300.3,309.1z"/>
	<path class="st0" d="M243.1,244c16.7,0,30.2-13.6,30.2-30.2c0-16.7-13.6-30.2-30.2-30.2c-16.7,0-30.2,13.6-30.2,30.2
		C212.8,230.5,226.4,244,243.1,244z"/>
</g>
</svg>
